<?xml version="1.0" encoding="iso-8859-1"?>
<!-- Generator: Adobe Illustrator 19.0.0, SVG Export Plug-In . SVG Version: 6.00 Build 0)  -->
<svg version="1.1" id="Layer_1" xmlns="http://www.w3.org/2000/svg" xmlns:xlink="http://www.w3.org/1999/xlink" x="0px" y="0px"
	 viewBox="0 0 512 512" style="enable-background:new 0 0 512 512;" xml:space="preserve">
<g>
	<g>
		<path d="M472.086,322.773l-0.623-1.265L342.997,150.962l-1.088-0.976c-1.359-1.22-24.93-21.578-66.875-11.825L389.378,20.957
			L367.896,0l-155.5,159.388L56.896,0L35.414,20.957l152.045,155.847c-69.955,10.563-79.283,55.001-79.688,57.136l-0.263,1.385
			v213.519l0.282,1.435c0.496,2.521,13.281,61.72,112.32,61.72c65.964,0,93.313-25.22,104.369-42.811
			c3.801,0.565,7.87,0.905,12.234,0.905c21.047,0,48.578-7.605,82.025-32.792C497.912,377.66,473.178,324.986,472.086,322.773z
			 M301.889,447.776c-2.11,6.066-15.482,34.212-81.779,34.212c-66.618,0-80.408-30.196-82.591-36.644V238.782
			c2.11-6.066,15.481-34.212,81.778-34.212c66.619,0,80.408,30.196,82.592,36.644V447.776z M400.683,413.33
			c-31.238,23.524-54.225,27.654-68.783,26.47v-45.567l69.174-54.516l-18.576-23.572l-50.598,39.876v-44.524l32.354-25.499
			l-18.576-23.572l-13.777,10.858v-35.572l-0.282-1.435c-0.427-2.172-9.988-46.428-75.996-58.627
			c38.996-20.973,60.738-9.093,65.509-5.837l124.351,165.084C447.242,342.324,454.037,373.138,400.683,413.33z"/>
	</g>
</g>
<g>
	<g>
		<rect x="167.433" y="266.91" width="106.54" height="30.011"/>
	</g>
</g>
<g>
	<g>
		<rect x="167.433" y="330.434" width="106.54" height="30.011"/>
	</g>
</g>
<g>
	<g>
		<rect x="167.433" y="393.958" width="106.54" height="30.011"/>
	</g>
</g>
<g>
</g>
<g>
</g>
<g>
</g>
<g>
</g>
<g>
</g>
<g>
</g>
<g>
</g>
<g>
</g>
<g>
</g>
<g>
</g>
<g>
</g>
<g>
</g>
<g>
</g>
<g>
</g>
<g>
</g>
</svg>
